<svg width="48" height="49" viewBox="0 0 48 49" fill="none" xmlns="http://www.w3.org/2000/svg">
<g filter="url(#filter0_d_5417_1236)">
<rect x="4" y="0.5" width="40" height="40" rx="20" fill="#0E1422"/>
<path d="M28.4769 11.8485L22.204 8.05509C21.6119 7.69292 20.9388 7.5015 20.2532 7.50031C18.2094 7.50031 16.3348 9.21225 16.3348 11.605V25.8073L28.4769 18.4669C30.9083 16.9947 30.9083 13.32 28.4769 11.8485ZM19.8484 18.948V11.3679L26.1163 15.1567L19.8484 18.948Z" fill="white"/>
<path d="M31.8489 33.4844C31.8489 33.5273 19.9908 33.466 19.9908 33.466L18.9434 33.3425C17.2467 33.144 15.9443 31.6233 16.002 29.8346C16.002 29.7917 16.0057 29.7519 16.0081 29.7103C16.0547 28.9365 16.3261 28.1961 16.7858 27.5885C16.9725 27.3461 17.2009 27.1425 17.4592 26.9882L26.4782 21.5725C28.3414 20.4535 29.8931 20.062 30.6999 18.0341C30.9974 17.2757 31.126 16.4562 31.0757 15.6379L31.0446 15.0865L31.9651 20.4204C32.083 21.3264 31.9013 22.2537 31.4211 23.0169C31.1326 23.4785 30.7475 23.8653 30.2951 24.1479L19.8295 29.3943C19.8191 29.4006 19.809 29.4074 19.7993 29.4149C19.5127 29.6293 19.6896 30.1069 20.0403 30.0867L28.7515 30.1403C30.4433 30.0417 31.8526 31.7112 31.8489 33.4844Z" fill="white"/>
</g>
<defs>
<filter id="filter0_d_5417_1236" x="0" y="0.5" width="48" height="48" filterUnits="userSpaceOnUse" color-interpolation-filters="sRGB">
<feFlood flood-opacity="0" result="BackgroundImageFix"/>
<feColorMatrix in="SourceAlpha" type="matrix" values="0 0 0 0 0 0 0 0 0 0 0 0 0 0 0 0 0 0 127 0" result="hardAlpha"/>
<feOffset dy="4"/>
<feGaussianBlur stdDeviation="2"/>
<feComposite in2="hardAlpha" operator="out"/>
<feColorMatrix type="matrix" values="0 0 0 0 0 0 0 0 0 0 0 0 0 0 0 0 0 0 0.25 0"/>
<feBlend mode="normal" in2="BackgroundImageFix" result="effect1_dropShadow_5417_1236"/>
<feBlend mode="normal" in="SourceGraphic" in2="effect1_dropShadow_5417_1236" result="shape"/>
</filter>
</defs>
</svg>
